<?xml version="1.0" standalone="no"?>
<!DOCTYPE svg PUBLIC "-//W3C//DTD SVG 20010904//EN"
 "http://www.w3.org/TR/2001/REC-SVG-20010904/DTD/svg10.dtd">
<svg version="1.0" xmlns="http://www.w3.org/2000/svg"
 width="28.000000pt" height="85.000000pt" viewBox="0 0 28.000000 85.000000"
 preserveAspectRatio="xMidYMid meet">

<g transform="translate(0.000000,85.000000) scale(0.100000,-0.100000)"
fill="#000000" stroke="none">
<path d="M97 802 c-15 -16 -17 -51 -17 -287 l0 -269 -25 -26 c-52 -54 -49
-128 6 -174 58 -49 151 -29 184 40 21 45 14 92 -20 128 -32 34 -35 86 -5 86
11 0 20 5 20 10 0 6 -9 10 -20 10 -17 0 -20 7 -20 44 0 36 4 45 23 51 l22 8
-22 4 c-20 4 -23 11 -23 48 0 35 4 44 23 50 l22 8 -22 4 c-20 4 -23 11 -23 53
0 42 3 49 23 53 l22 4 -22 2 c-21 1 -23 6 -23 57 0 54 -12 92 -34 106 -20 13
-53 8 -69 -10z m73 -21 c6 -12 10 -122 10 -289 l0 -269 25 -23 c19 -18 25 -33
25 -64 -1 -44 -13 -66 -47 -84 -39 -21 -82 -14 -114 17 -40 40 -40 88 1 134
l30 35 0 269 c0 196 3 272 12 281 18 18 46 14 58 -7z"/>
<path d="M110 341 c0 -119 0 -119 -30 -149 -39 -39 -39 -75 -1 -113 33 -32 58
-36 100 -14 32 16 41 33 41 76 0 28 -30 69 -50 69 -6 0 -10 48 -10 125 l0 125
-25 0 -25 0 0 -119z"/>
</g>
</svg>
